<?xml version="1.0" encoding="UTF-8" standalone="no"?>
<!-- Created with Inkscape (http://www.inkscape.org/) -->

<svg
   xmlns:dc="http://purl.org/dc/elements/1.1/"
   xmlns:cc="http://creativecommons.org/ns#"
   xmlns:rdf="http://www.w3.org/1999/02/22-rdf-syntax-ns#"
   xmlns:svg="http://www.w3.org/2000/svg"
   xmlns="http://www.w3.org/2000/svg"
   xmlns:sodipodi="http://sodipodi.sourceforge.net/DTD/sodipodi-0.dtd"
   xmlns:inkscape="http://www.inkscape.org/namespaces/inkscape"
   id="svg2"
   version="1.1"
   inkscape:version="0.91 r13725"
   xml:space="preserve"
   width="322.60251"
   height="322.60126"
   viewBox="0 0 322.6025 322.60126"
   sodipodi:docname="Logo OSalon.ai"><metadata
     id="metadata8"><rdf:RDF><cc:Work
         rdf:about=""><dc:format>image/svg+xml</dc:format><dc:type
           rdf:resource="http://purl.org/dc/dcmitype/StillImage" /><dc:title></dc:title></cc:Work></rdf:RDF></metadata><defs
     id="defs6"><clipPath
       clipPathUnits="userSpaceOnUse"
       id="clipPath20"><path
         d="m 0,1073 863.667,0 0,-1073 L 0,0 0,1073 Z"
         id="path22"
         inkscape:connector-curvature="0" /></clipPath></defs><sodipodi:namedview
     pagecolor="#ffffff"
     bordercolor="#666666"
     borderopacity="1"
     objecttolerance="10"
     gridtolerance="10"
     guidetolerance="10"
     inkscape:pageopacity="0"
     inkscape:pageshadow="2"
     inkscape:window-width="1093"
     inkscape:window-height="673"
     id="namedview4"
     showgrid="false"
     fit-margin-top="0"
     fit-margin-left="0"
     fit-margin-right="0"
     fit-margin-bottom="0"
     inkscape:zoom="1.4076421"
     inkscape:cx="182.49427"
     inkscape:cy="159.12294"
     inkscape:window-x="0"
     inkscape:window-y="0"
     inkscape:window-maximized="0"
     inkscape:current-layer="g10" /><g
     id="g10"
     inkscape:groupmode="layer"
     inkscape:label="Logo OSalon"
     transform="matrix(1.25,0,0,-1.25,-393.23125,1176.1775)"><path
       d="m 566.983,688.546 -246.714,0 0,246.712 246.714,0 0,-246.712 z"
       style="fill:#a7a9ac;fill-opacity:1;fill-rule:nonzero;stroke:none"
       id="path12"
       inkscape:connector-curvature="0" /><path
       d="m 315.609,683.887 256.032,0 0,256.03 -256.032,0 0,-256.03 z m 257.058,-1.026 -258.082,0 0,258.081 258.082,0 0,-258.081 z"
       style="fill:#a7a9ac;fill-opacity:1;fill-rule:nonzero;stroke:none"
       id="path14"
       inkscape:connector-curvature="0" /><g
       id="g16"><g
         id="g18"
         clip-path="url(#clipPath20)"><g
           id="g24"
           transform="translate(497.8931,819.5122)"><path
             d="m 0,0 0,0.398 c 0,31.336 -22.865,56.958 -54.401,56.958 -31.534,0 -54.004,-25.23 -54.004,-56.567 l 0,-0.391 c 0,-31.34 22.862,-56.964 54.399,-56.964 C -22.471,-56.566 0,-31.338 0,0 m -124.567,0 0,0.398 c 0,38.037 28.579,71.345 70.561,71.345 41.983,0 70.166,-32.913 70.166,-70.954 l 0,-0.391 c 0,-38.04 -28.574,-71.35 -70.561,-71.35 -41.981,0 -70.166,32.915 -70.166,70.952"
             style="fill:#231f20;fill-opacity:1;fill-rule:nonzero;stroke:none"
             id="path26"
             inkscape:connector-curvature="0" /></g><g
           id="g28"
           transform="translate(359.9424,707.127)"><path
             d="m 0,0 2.012,2.378 c 2.994,-2.71 5.865,-4.062 9.846,-4.062 3.856,0 6.401,2.052 6.401,4.88 l 0,0.08 c 0,2.67 -1.436,4.187 -7.467,5.462 -6.607,1.435 -9.643,3.567 -9.643,8.284 l 0,0.086 c 0,4.509 3.981,7.835 9.437,7.835 4.184,0 7.178,-1.19 10.094,-3.532 l -1.888,-2.5 c -2.668,2.172 -5.335,3.12 -8.287,3.12 -3.732,0 -6.114,-2.052 -6.114,-4.636 l 0,-0.084 c 0,-2.71 1.478,-4.224 7.794,-5.579 6.4,-1.397 9.355,-3.736 9.355,-8.122 l 0,-0.086 c 0,-4.923 -4.103,-8.122 -9.805,-8.122 C 7.179,-4.598 3.447,-3.078 0,0"
             style="fill:#231f20;fill-opacity:1;fill-rule:nonzero;stroke:none"
             id="path30"
             inkscape:connector-curvature="0" /></g><g
           id="g32"
           transform="translate(412.2593,713.4873)"><path
             d="M 0,0 -6.525,14.604 -13.091,0 0,0 Z m -8.002,18.377 3.037,0 13.087,-28.929 -3.49,0 -3.362,7.594 -15.633,0 -3.404,-7.594 -3.322,0 13.087,28.929 z"
             style="fill:#231f20;fill-opacity:1;fill-rule:nonzero;stroke:none"
             id="path34"
             inkscape:connector-curvature="0" /></g><g
           id="g36"
           transform="translate(432.2017,731.6582)"><path
             d="m 0,0 3.243,0 0,-25.72 16.163,0 0,-3.003 L 0,-28.723 0,0 Z"
             style="fill:#231f20;fill-opacity:1;fill-rule:nonzero;stroke:none"
             id="path38"
             inkscape:connector-curvature="0" /></g><g
           id="g40"
           transform="translate(486.771,717.2158)"><path
             d="m 0,0 0,0.084 c 0,6.524 -4.759,11.858 -11.322,11.858 -6.562,0 -11.244,-5.251 -11.244,-11.776 l 0,-0.082 c 0,-6.526 4.763,-11.856 11.325,-11.856 C -4.673,-11.772 0,-6.522 0,0 m -25.928,0 0,0.084 c 0,7.916 5.949,14.849 14.687,14.849 8.739,0 14.606,-6.849 14.606,-14.767 l 0,-0.082 c 0,-7.917 -5.946,-14.855 -14.687,-14.855 -8.741,0 -14.606,6.856 -14.606,14.771"
             style="fill:#231f20;fill-opacity:1;fill-rule:nonzero;stroke:none"
             id="path42"
             inkscape:connector-curvature="0" /></g><g
           id="g44"
           transform="translate(503.147,731.6582)"><path
             d="m 0,0 3.039,0 18.092,-23.014 0,23.014 3.16,0 0,-28.723 -2.588,0 -18.539,23.553 0,-23.553 -3.164,0 L 0,0 Z"
             style="fill:#231f20;fill-opacity:1;fill-rule:nonzero;stroke:none"
             id="path46"
             inkscape:connector-curvature="0" /></g><g
           id="g48"
           transform="translate(465.9482,899.9189)"><path
             d="m 0,0 c -0.408,-0.927 -1.438,-1.495 -2.698,-1.495 -0.606,0 -1.24,0.138 -1.832,0.4 -0.92,0.401 -1.658,1.059 -2.077,1.856 -0.408,0.756 -0.466,1.551 -0.169,2.225 0.406,0.921 1.44,1.493 2.694,1.493 0.614,0 1.246,-0.136 1.836,-0.398 0.921,-0.402 1.659,-1.065 2.08,-1.857 C 0.239,1.463 0.298,0.676 0,0 m -22.094,10.399 c -0.416,0 -0.758,0.339 -0.758,0.759 0,0.42 0.342,0.76 0.758,0.76 0.422,0 0.763,-0.34 0.763,-0.76 0,-0.42 -0.341,-0.759 -0.763,-0.759 M -36.877,1.317 c -0.422,-0.789 -1.158,-1.451 -2.081,-1.856 -0.59,-0.264 -1.227,-0.398 -1.835,-0.398 -1.082,0 -2.019,0.433 -2.505,1.157 -0.073,0.108 -0.135,0.22 -0.188,0.334 -0.3,0.679 -0.236,1.467 0.167,2.23 0.418,0.788 1.158,1.451 2.077,1.855 0.594,0.26 1.228,0.401 1.835,0.401 1.257,0 2.289,-0.573 2.696,-1.498 0.013,-0.023 0.017,-0.045 0.028,-0.069 l -0.071,-0.255 0.139,0.06 c 0.178,-0.61 0.089,-1.297 -0.262,-1.961 M 0.522,2.588 C 0.018,3.535 -0.852,4.321 -1.93,4.795 -2.623,5.1 -3.36,5.258 -4.082,5.258 c -1.296,0 -2.402,-0.521 -3.054,-1.375 l -0.005,0.018 -12.281,7.485 14.133,11.898 -16.834,-10.251 -16.188,9.863 13.598,-11.448 -11.594,-7.065 c -0.644,0.895 -1.772,1.435 -3.1,1.435 -0.713,0 -1.455,-0.162 -2.145,-0.466 -1.083,-0.475 -1.955,-1.259 -2.453,-2.204 -0.52,-0.975 -0.588,-2.003 -0.194,-2.902 -1.141,-0.658 -2.155,-0.887 -3.029,-0.654 -1.082,0.286 -1.581,1.2 -1.585,1.211 L -49.157,0.621 -49.502,0.44 c 0.026,-0.052 0.648,-1.216 2.064,-1.599 0.292,-0.078 0.598,-0.116 0.912,-0.116 0.848,0 1.759,0.286 2.74,0.863 0.655,-0.821 1.75,-1.305 2.993,-1.305 0.717,0 1.459,0.162 2.153,0.462 1.08,0.479 1.948,1.259 2.449,2.204 0.471,0.884 0.569,1.809 0.294,2.644 l 8.98,3.91 3.118,0.196 1.772,1.489 2.222,-1.879 3.115,-0.192 9.138,-3.983 C -7.868,2.275 -7.784,1.309 -7.3,0.392 c 0.505,-0.949 1.376,-1.725 2.455,-2.204 0.69,-0.306 1.436,-0.461 2.147,-0.461 1.573,0 2.877,0.75 3.41,1.959 0.397,0.898 0.333,1.929 -0.19,2.902"
             style="fill:#231f20;fill-opacity:1;fill-rule:nonzero;stroke:none"
             id="path50"
             inkscape:connector-curvature="0" /></g></g></g></g></svg>